<svg xmlns="http://www.w3.org/2000/svg" viewBox="240 393 622 360">
  <path fill="rgb(27,86,53)" d="M 351.777 401.5 C 404.656 400.246 458.443 401.96 511.382 401.544 C 514.344 401.521 515.575 402.228 517.586 404.109 C 519.915 412.455 509.592 423.046 502.57 426.701 C 510.017 455.028 515.103 481.934 522.881 509.965 C 529.169 510.823 536.609 511.392 543.01 512.035 C 542.561 491.35 540.047 455.863 550.663 437.711 C 556.18 428.279 564.154 425.718 573.917 423.463 L 573.914 440.56 C 571.825 441.7 564.505 445.612 565.083 447.55 C 567.005 453.999 566.59 511.722 568.026 514.077 C 570.087 514.295 571.481 514.235 573.229 515.336 C 571.139 529.577 520.07 569.522 506.88 578.959 C 507.35 543.403 504.976 527.351 494.776 492.759 C 488.798 472.486 482.205 446.761 477.904 426.075 C 460.065 426.174 442.225 426.15 424.386 426.003 C 425.253 451.762 425.156 488.381 424.508 514.101 C 457.759 530.94 479.369 549.539 496.044 583.341 C 487.932 585.318 479.832 587.344 471.745 589.416 C 463.473 575.717 455.834 563.169 443.236 552.778 C 402.681 519.327 325.113 520.753 291.516 564.64 C 285.137 559.355 279.178 553.582 273.695 547.372 C 303.996 524.045 297.408 523.483 335.81 509.275 C 341.03 490.841 347.856 446.71 351.356 426.35 C 345.229 422.421 332.64 410.341 337.165 402.778 C 340.218 400.985 347.804 401.516 351.777 401.5 z M 360.077 504.796 C 369.885 504.348 379.711 504.526 389.495 505.329 C 394.506 506.084 399.481 506.737 404.395 507.981 C 403.892 482.266 403.454 451.815 404.294 426.233 L 375.069 426.009 C 370.791 449.257 365.692 482.457 360.077 504.796 z"/>
  <path fill="rgb(27,86,53)" d="M 674.909 601.563 C 713.313 597.858 747.399 626.111 750.882 664.536 C 754.365 702.961 725.916 736.882 687.471 740.144 C 649.339 743.379 615.753 715.211 612.298 677.098 C 608.844 638.986 636.817 605.238 674.909 601.563 z M 685.545 708.672 C 699.17 707.327 711.014 698.746 716.538 686.218 C 722.061 673.69 720.406 659.158 712.209 648.192 C 704.011 637.226 690.541 631.526 676.962 633.278 C 656.397 635.932 641.771 654.601 644.116 675.203 C 646.461 695.805 664.91 710.709 685.545 708.672 z"/>
  <path fill="rgb(196,157,55)" d="M 677.604 651.919 C 684.483 650.379 691.658 652.669 696.373 657.91 C 701.087 663.151 702.608 670.528 700.351 677.206 C 698.095 683.885 692.411 688.826 685.484 690.133 C 675.021 692.107 664.907 685.328 662.757 674.9 C 660.606 664.472 667.213 654.245 677.604 651.919 z"/>
  <path fill="rgb(27,86,53)" d="M 485.114 632.696 C 529.92 621.258 553.34 606.26 584.362 571.816 C 591.222 564.199 605.003 550.072 612.847 544.289 L 614.564 546.875 C 614.926 557.171 614.232 591.137 615.499 598.791 C 617.806 600.091 619.465 599.517 622.173 599.158 C 623.532 597.971 624.262 597.504 624.103 595.154 C 623.263 582.762 625.15 559.427 623.342 548.055 C 627.265 548.425 631.315 548.753 635.219 549.184 L 635.44 601.882 C 612.46 618.941 600.597 643.846 599.614 672.148 C 564.89 670.425 517.268 671.925 481.548 671.943 C 485.614 657.744 485.917 647.212 485.114 632.696 z"/>
  <path fill="rgb(27,86,53)" d="M 364.698 543.332 C 403.002 540.209 440.454 557.693 458.747 592.219 C 446.064 596.185 431.614 597.034 415.971 602.124 C 408.717 596.354 403.253 592.011 394.461 588.382 C 380.396 582.542 364.554 582.711 350.617 588.851 C 334.041 596.005 325.181 606.433 318.707 622.745 C 314.742 635.779 315.178 642.649 317.048 655.55 C 305.513 667.476 297.333 676.202 286.544 689.044 C 266.835 650.961 270.746 611.458 297.543 577.49 C 315.721 554.448 336.441 546.862 364.698 543.332 z"/>
  <path fill="rgb(27,86,53)" d="M 420.988 610.423 C 435.768 605.378 452.103 601.727 467.375 598.471 C 481.505 595.459 496.685 594.204 509.566 587.181 C 519.731 581.639 529.834 574.62 538.474 566.895 C 560.862 546.878 615.678 479.892 638.124 471.77 C 648.554 467.996 660.716 470.084 670.485 474.747 C 663.753 481.556 656.946 488.291 650.065 494.95 C 629.749 505.201 604.079 544.011 583.543 559.333 C 575.246 565.522 564.868 581.805 555.985 588.351 C 519.574 619.72 475.537 624.468 430.509 636.644 C 429.452 626.987 425.779 618.694 420.988 610.423 z"/>
  <path fill="rgb(27,86,53)" d="M 468.8 636.255 C 470.362 636.224 469.792 636.226 471.359 637.041 C 474.946 648.344 465.178 680.154 459.479 690.309 C 445.26 715.65 416.448 735.464 387.452 739.563 C 364.787 742.767 347.043 738.409 326.412 728.572 C 323.518 727.034 319.518 724.399 316.625 722.615 C 326.74 711.11 334.351 703.049 345.982 693.132 C 375.655 706.524 406.331 698.846 422.624 669.908 C 427.231 661.726 428.704 655.469 431.091 646.509 C 440.513 643.076 459.037 638.574 468.8 636.255 z"/>
  <path fill="rgb(196,157,55)" d="M 338.534 648.276 C 342.467 611.778 366.22 592.978 398.277 617.866 C 405.48 614.62 413.327 612.309 420.988 610.423 C 425.779 618.694 429.452 626.987 430.509 636.644 C 422.109 638.414 415.435 640.315 407.186 642.759 C 403.014 671.855 379.895 682.377 353.835 670.398 C 349.615 676.346 343.516 682.368 338.393 687.741 C 329.728 680.112 326.322 675.163 319.948 665.72 C 326.48 659.113 331.434 654.211 338.534 648.276 z"/>
  <path fill="rgb(196,157,55)" d="M 783.891 440.805 C 791.188 445.726 797.193 452.191 803.305 458.532 C 787.754 474.804 773.595 490.732 757.123 506.652 C 734.316 528.696 715.381 554.673 682.8 524.428 C 674.071 515.81 662.308 498.416 650.065 494.95 C 656.946 488.291 663.753 481.556 670.485 474.747 C 681.736 484.481 697.926 502.534 709.528 509.485 C 712.513 509.556 715.111 508.317 717.363 506.316 C 740.494 485.765 760.334 460.927 783.891 440.805 z"/>
  <path fill="rgb(196,157,55)" d="M 631.497 523.625 C 646.273 525.558 662.333 527.751 676.197 533.451 C 681.341 535.566 691.557 543.308 696.196 544.345 C 714.227 548.374 717.622 544.824 726.604 563.479 C 714.641 563.631 701.951 564.012 690.056 563.515 L 690.192 574.98 C 701.964 574.979 715.04 574.729 726.718 575.04 C 726.298 583.316 725.992 591.597 725.799 599.881 C 706.687 591.925 688.019 586.819 667.257 590.535 C 667.277 578.917 667.037 566.181 667.443 554.652 C 664.12 553.99 660.418 553.338 657.152 552.579 L 645.73 550.941 L 635.219 549.184 C 631.315 548.753 627.265 548.425 623.342 548.055 L 614.564 546.875 L 612.847 544.289 C 620.022 537.741 622.332 531.76 631.497 523.625 z"/>
  <path fill="rgb(27,86,53)" d="M 841.187 401.193 C 838.005 417.058 835.379 433.04 832.644 448.992 C 830.834 459.555 827.853 471.123 826.291 481.514 C 818.559 473.923 810.897 466.262 803.305 458.532 C 797.193 452.191 791.188 445.726 783.891 440.805 C 776.881 431.973 769.493 426.08 763.384 418.629 C 781.801 414.596 825.809 406.352 841.187 401.193 z"/>
  <path fill="rgb(27,86,53)" d="M 319.948 665.72 C 326.322 675.163 329.728 680.112 338.393 687.741 C 326.377 697.817 313.391 711.62 303.273 723.351 C 298.31 729.105 295.048 734.134 289.631 739.947 C 279.897 741.282 263.46 740.624 253.495 740.175 C 258.869 729.463 309.507 676.552 319.948 665.72 z"/>
  <path fill="rgb(27,86,53)" d="M 645.73 550.941 L 657.152 552.579 C 657.893 564.054 657.464 581.477 657.529 593.4 C 653.788 594.263 649.592 595.71 645.888 596.889 C 646.468 583.634 646.195 564.295 645.73 550.941 z"/>
</svg>