<?xml version="1.0" encoding="UTF-8"?>
<svg xmlns="http://www.w3.org/2000/svg" viewBox="150 255 1075 245" width="1075" height="245">
<path d="M0 0 C40.26 0 80.52 0 122 0 C120.79695431 9.62436548 120.79695431 9.62436548 118 13 C116.0207781 14.04051942 114.0219321 15.04512273 112 16 C113.97848495 26.4886004 116.34739583 36.83598608 118.96166992 47.18286133 C119.56949154 49.59019058 120.17084397 51.99907316 120.77148438 54.40820312 C121.16108346 55.9610316 121.55104397 57.51376945 121.94140625 59.06640625 C122.11853653 59.77583878 122.29566681 60.4852713 122.47816467 61.21620178 C123.49547402 65.22851602 124.68665027 69.0599508 126 73 C130.29 73.33 134.58 73.66 139 74 C139 62.45 139 50.9 139 39 C139.66 39 140.32 39 141 39 C140.96519531 38.34773438 140.93039062 37.69546875 140.89453125 37.0234375 C140.69694823 30.64432844 141.03607844 26.34144002 145.44140625 21.375 C149.9228257 17.04954643 153.90206504 15.93814384 160 15 C160 18.96 160 22.92 160 27 C157.525 27.99 157.525 27.99 155 29 C152.70424397 31.29575603 152.67660401 32.00842525 152.375 35.125 C152.189375 37.043125 152.189375 37.043125 152 39 C152.99 39 153.98 39 155 39 C155.33 51.21 155.66 63.42 156 76 C157.32 76.66 158.64 77.32 160 78 C159.58226318 78.4125 159.16452637 78.825 158.73413086 79.25 C148.80988978 89.00976358 148.80988978 89.00976358 139.45703125 99.30859375 C132.7817236 107.05767743 124.92747844 113.0102309 116 118 C115.34 118 114.68 118 114 118 C114.01716568 117.31624802 114.03433136 116.63249603 114.05201721 115.92802429 C114.40195657 94.24238842 110.25300789 75.01529235 104.58721924 54.21240234 C103.48650269 50.14662738 102.41907042 46.07213383 101.34960938 41.99804688 C100.15020528 37.43165283 98.94816598 32.86623139 97.71873474 28.30781555 C97.53554688 27.62630936 97.35235901 26.94480316 97.16362 26.24264526 C96.66979463 24.40819988 96.17330376 22.57447261 95.67662048 20.74079895 C95 18 95 18 95 16 C83.12 16 71.24 16 59 16 C59.33 35.8 59.66 55.6 60 76 C64.95 78.64 69.9 81.28 75 84 C78.8822249 86.9323188 82.43346044 89.74798992 86 93 C87.15048828 94.01126953 87.15048828 94.01126953 88.32421875 95.04296875 C93.09927193 99.48468488 96.86170839 104.37040964 100.5 109.75 C100.9338501 110.38824707 101.3677002 111.02649414 101.81469727 111.68408203 C104.03289453 115.08059921 105.56592842 117.93833024 106 122 C100.9669025 123.57284297 96.24082468 124.39402965 91 125 C90.24976563 123.94941406 89.49953125 122.89882813 88.7265625 121.81640625 C75.80386843 103.97756229 60.50719188 90.81276099 38 87 C33.64841961 86.75446328 29.29533318 86.76885488 24.9375 86.75 C23.77283203 86.729375 22.60816406 86.70875 21.40820312 86.6875 C10.46970845 86.63874905 0.67335804 88.57461867 -9.0625 93.625 C-9.73442383 93.96547363 -10.40634766 94.30594727 -11.09863281 94.65673828 C-16.57485439 97.54123017 -21.13897352 100.99343292 -25.765625 105.1171875 C-28 107 -28 107 -32 109 C-35.3 105.7 -38.6 102.4 -42 99 C-38.06136082 94.16349475 -34.1653651 90.16584264 -29.125 86.5 C-28.4858667 86.03223145 -27.8467334 85.56446289 -27.18823242 85.08251953 C-19.29216034 79.51704837 -10.37988766 75.34497191 -1 73 C2.63 53.86 6.26 34.72 10 15 C7.525 14.505 7.525 14.505 5 14 C0.76114672 9.17241709 0.85729124 6.85832989 0 0 Z " fill="#1E5637" transform="translate(226,270)"/>
<path d="M0 0 C-0.74059296 5.51741753 -1.70140595 10.97079507 -2.75 16.4375 C-3.00571777 17.77687622 -3.00571777 17.77687622 -3.26660156 19.14331055 C-5.38191129 30.12191938 -7.68638876 41.06176018 -10 52 C-13.7658106 48.81968878 -17.48438989 45.64858175 -20.9375 42.125 C-21.52402344 41.52945313 -22.11054687 40.93390625 -22.71484375 40.3203125 C-23.13894531 39.88460937 -23.56304688 39.44890625 -24 39 C-26.93529349 40.32483081 -29.01037418 41.76144662 -31.28051758 44.03759766 C-32.20716972 44.95963486 -32.20716972 44.95963486 -33.15254211 45.90029907 C-33.80989853 46.564841 -34.46725494 47.22938293 -35.14453125 47.9140625 C-36.17654915 48.94676773 -36.17654915 48.94676773 -37.22941589 50.00033569 C-38.68502068 51.45895983 -40.13819597 52.92001191 -41.58911133 54.38330078 C-43.78878304 56.60108772 -45.99620887 58.81090877 -48.20507812 61.01953125 C-49.62286572 62.44224022 -51.04019781 63.86540331 -52.45703125 65.2890625 C-53.10831497 65.94145905 -53.75959869 66.59385559 -54.43061829 67.26602173 C-58.2385581 71.11269423 -61.85623349 75.0621071 -65.34941101 79.19760132 C-71.48362411 85.89599666 -78.84174766 89.96578271 -87.9375 90.5 C-98.56661301 90.09430866 -106.58271732 81.7793862 -113.48291016 74.41796875 C-113.98999512 73.86753906 -114.49708008 73.31710937 -115.01953125 72.75 C-115.53604248 72.20093994 -116.05255371 71.65187988 -116.5847168 71.08618164 C-117.5884351 70.01182601 -118.57420198 68.92032411 -119.53833008 67.81030273 C-122.23290223 64.9343157 -124.23410353 63.63164999 -128.11328125 63.47265625 C-132.00027992 64.00003798 -133.34247756 64.32182406 -136.0625 67 C-136.65160156 67.556875 -137.24070312 68.11375 -137.84765625 68.6875 C-139.60892937 70.57982974 -141.28659977 72.50422638 -142.96484375 74.46875 C-148.67405008 81.03612355 -154.98797901 87.04321214 -161.17529297 93.15478516 C-166.7732443 98.69033633 -172.33085264 104.20624331 -177.44726562 110.19824219 C-186.6746061 120.90543915 -196.71285713 129.98394924 -209 137 C-210.09828125 137.63292969 -211.1965625 138.26585937 -212.328125 138.91796875 C-223.52337382 144.70729263 -235.73376139 147.32185002 -247.921875 150.25830078 C-251.76802643 151.18506221 -255.60217636 152.15447603 -259.4375 153.125 C-261.27141523 153.57954337 -263.10533362 154.03407453 -264.93945312 154.48779297 C-267.37230788 155.09254762 -269.80336512 155.70427831 -272.234375 156.31640625 C-273.13873291 156.54376465 -274.04309082 156.77112305 -274.97485352 157.00537109 C-276.73857083 157.44887989 -278.5020912 157.8931729 -280.26538086 158.33837891 C-284.16301583 159.31659966 -288.04684112 160.26733715 -292 161 C-292.103125 162.03125 -292.20625 163.0625 -292.3125 164.125 C-293.72717927 172.09864682 -297.6111125 176.35242157 -304 181 C-309.04391124 183.52195562 -314.45710232 183.52158048 -320 183 C-321.19625 182.525625 -322.3925 182.05125 -323.625 181.5625 C-326.82014461 180.67383164 -326.82014461 180.67383164 -328.71484375 181.93359375 C-330.95710899 183.83454166 -332.95842101 185.8831705 -335 188 C-336.12229836 189.10561371 -337.24753201 190.20825234 -338.375 191.30859375 C-343.85060061 196.6786971 -349.26000889 202.0767133 -354.21875 207.93359375 C-357.09203558 211.26685707 -360.09912386 214.47812835 -363.09448242 217.70166016 C-365.23650136 220.02008974 -367.03599642 222.06535011 -368.56640625 224.84375 C-372.74798709 228.54877829 -377.89353649 227.51445483 -383.25 227.3125 C-384.37664062 227.28994141 -385.50328125 227.26738281 -386.6640625 227.24414062 C-389.44405232 227.18524254 -392.22135332 227.10304201 -395 227 C-395 226.34 -395 225.68 -395 225 C-394.34 225 -393.68 225 -393 225 C-392.66548828 224.18789063 -392.66548828 224.18789063 -392.32421875 223.359375 C-390.57941037 220.25063086 -388.24776945 217.82037912 -385.8125 215.25 C-382.67435362 211.90382417 -379.57711347 208.53619623 -376.56640625 205.07421875 C-367.71569846 194.91180246 -358.3222074 185.23106073 -348.8125 175.6875 C-347.73476318 174.60287476 -347.73476318 174.60287476 -346.63525391 173.49633789 C-345.95769043 172.82078857 -345.28012695 172.14523926 -344.58203125 171.44921875 C-343.68834839 170.55722778 -343.68834839 170.55722778 -342.77661133 169.6472168 C-341 168 -341 168 -338.80541992 166.45141602 C-336.71434849 165.09699976 -336.71434849 165.09699976 -336.53125 162.328125 C-336.5209375 161.31234375 -336.510625 160.2965625 -336.5 159.25 C-336.13811875 152.72040356 -335.05618548 149.06329289 -330.3203125 144.31640625 C-324.55092499 139.15367108 -320.53905887 137.59693757 -312.7578125 137.7421875 C-308.23402118 138.1650915 -304.57833805 139.44308735 -301.2734375 142.703125 C-298.39477949 144.34524606 -296.72097166 143.86411304 -293.59570312 143.03710938 C-292.58926758 142.74030273 -292.58926758 142.74030273 -291.5625 142.4375 C-290.60827148 142.18129883 -290.60827148 142.18129883 -289.63476562 141.91992188 C-286.45120524 141.04886008 -283.30044202 140.09618273 -280.15698242 139.08984375 C-274.10063729 137.16190486 -268.05067444 135.47418733 -261.85546875 134.0703125 C-261.14943008 133.91017166 -260.44339142 133.75003082 -259.71595764 133.58503723 C-256.81879986 132.9322985 -253.92051727 132.2852882 -251.01928711 131.65087891 C-229.51829388 126.92575945 -212.96117581 119.59937061 -197 104 C-196.3797998 103.39494629 -195.75959961 102.78989258 -195.12060547 102.16650391 C-193.13587117 100.22214376 -191.15946848 98.26980337 -189.1875 96.3125 C-188.57745117 95.70728516 -187.96740234 95.10207031 -187.33886719 94.47851562 C-184.35611389 91.48440872 -181.48207655 88.44013109 -178.72753906 85.23413086 C-175.22252441 81.2113934 -171.56591252 77.37253169 -167.81640625 73.578125 C-167.15720688 72.91085388 -166.49800751 72.24358276 -165.8188324 71.55609131 C-164.43626319 70.15980879 -163.05221835 68.76498596 -161.66674805 67.37158203 C-160.26121621 65.95447197 -158.86017787 64.53289128 -157.46362305 63.10693359 C-155.42435564 61.02487767 -153.37204593 58.95650345 -151.31640625 56.890625 C-150.39415001 55.94210663 -150.39415001 55.94210663 -149.45326233 54.97442627 C-143.37553053 48.92645588 -136.59507802 44.99318539 -127.875 44.6875 C-117.05627698 45.00590206 -110.57518836 50.60307471 -103.38330078 58.21899414 C-102.69856689 58.94590454 -102.69856689 58.94590454 -102 59.6875 C-100.15052313 61.61264016 -98.29355458 63.53040549 -96.4375 65.44921875 C-95.63183594 66.29830811 -94.82617188 67.14739746 -93.99609375 68.0222168 C-91.5520946 70.44379668 -90.59672642 70.93744661 -87.16796875 71.296875 C-79.72892341 70.59975115 -73.73678442 61.77018602 -68.9609375 56.46875 C-62.94997959 49.85379364 -56.65686634 43.54317873 -50.3125 37.25 C-49.2061416 36.14867715 -48.1000208 35.04711555 -46.99414062 33.9453125 C-44.33214353 31.29413415 -41.66700511 28.64614155 -39 26 C-40.77496314 22.15577404 -43.0523933 19.80754485 -46.125 16.875 C-47.78723433 15.28810774 -49.42224346 13.67090822 -51 12 C-51 11.34 -51 10.68 -51 10 C-46.07509016 8.89447855 -41.14953288 7.79190268 -36.22338867 6.69189453 C-34.55231507 6.31832826 -32.88141212 5.94399771 -31.21069336 5.56884766 C-6.40333333 0 -6.40333333 0 0 0 Z " fill="#1D5534" transform="translate(565,271)"/>
<path d="M0 0 C2.15060486 1.56407626 4.04125524 3.18816109 6 5 C6.33 2.36 6.66 -0.28 7 -3 C14.59 -3 22.18 -3 30 -3 C30.06802949 7.4842161 30.12296172 17.96828334 30.15543652 28.45267105 C30.17103011 33.32204704 30.19215191 38.19126297 30.22631836 43.06054688 C30.25913834 47.76789656 30.27690033 52.47509317 30.28463173 57.18254852 C30.29013489 58.9701147 30.30088013 60.7576734 30.31719017 62.54517365 C30.44727153 77.40507536 29.71962868 91.08355955 19.40625 102.8125 C10.66025895 111.06343495 -0.81488242 112.33229839 -12.33203125 112.2109375 C-23.60246474 111.56279755 -32.63561218 107.93346045 -40.375 99.625 C-44.47204511 94.48093225 -46.07632878 89.51472874 -46 83 C-42.39625537 82.85499356 -38.79325758 82.76603237 -35.1875 82.6875 C-34.16333984 82.64560547 -33.13917969 82.60371094 -32.08398438 82.56054688 C-29.30535478 82.51499557 -26.73771822 82.5173177 -24 83 C-21.9609375 85.40625 -21.9609375 85.40625 -21 88 C-15.94071434 91.57851912 -10.96712287 91.6525063 -5 91 C-1.26763507 90.09700848 0.96961865 89.36670761 3.31640625 86.25390625 C6.7323315 79.76721893 6.39844159 73.16088082 6 66 C5.49210938 66.48210937 4.98421875 66.96421875 4.4609375 67.4609375 C3.77257812 68.09257812 3.08421875 68.72421875 2.375 69.375 C1.70210937 70.00148438 1.02921875 70.62796875 0.3359375 71.2734375 C-6.72675954 76.49369183 -16.59372867 75.99424634 -25 75 C-33.21205112 72.67151968 -39.51883894 67.32799815 -43.7265625 59.98828125 C-47.79497408 51.99606988 -49.20323395 46.31720452 -49.25 37.4375 C-49.270625 36.48552734 -49.29125 35.53355469 -49.3125 34.55273438 C-49.37507349 23.06267725 -46.24911693 13.72866547 -38.37109375 5.24609375 C-28.17882747 -4.18943814 -12.43900281 -6.68020521 0 0 Z " fill="#1F5536" transform="translate(703,366)"/>
<path d="M0 0 C0.82226074 0.00572021 1.64452148 0.01144043 2.49169922 0.01733398 C14.23391199 0.35624916 24.25998 4.32379088 32.8125 12.5 C33.43640625 13.09554688 34.0603125 13.69109375 34.703125 14.3046875 C45.08395547 25.18199247 47.40081845 37.19885673 47.15625 51.61328125 C46.69126409 61.62016548 42.39689812 70.11302599 35.8125 77.5 C35.33554687 78.09167969 34.85859375 78.68335938 34.3671875 79.29296875 C27.77386736 86.79742609 16.63491419 92.07416568 6.8125 93.5 C-8.36434109 94.44201083 -20.13069681 90.59551695 -31.86328125 80.796875 C-40.76623521 71.99866168 -46.23557605 59.36063091 -46.4375 46.875 C-46.28697254 33.24390194 -40.90229351 22.68062662 -31.7109375 12.86328125 C-22.67841874 4.40403381 -12.34277772 -0.10125436 0 0 Z " fill="#1D5536" transform="translate(457.1875,404.5)"/>
<path d="M0 0 C1.06476563 0.24234375 2.12953125 0.4846875 3.2265625 0.734375 C4.43699219 0.99347656 5.64742188 1.25257813 6.89453125 1.51953125 C7.85431885 1.75760498 7.85431885 1.75760498 8.83349609 2.00048828 C10.93076786 2.50336666 13.03111839 2.90430736 15.15234375 3.29296875 C23.29814597 4.87279367 29.73538543 6.92512484 36.5546875 11.8984375 C40.41227585 14.56201041 43.69768458 15.63605364 48.3515625 15.734375 C51.8192036 16.0580215 53.53455642 16.59406574 55.8515625 19.234375 C57.8515625 22.484375 57.8515625 22.484375 58.8515625 27.484375 C51.5915625 27.484375 44.3315625 27.484375 36.8515625 27.484375 C36.8515625 30.124375 36.8515625 32.764375 36.8515625 35.484375 C44.4415625 35.484375 52.0315625 35.484375 59.8515625 35.484375 C59.8515625 40.764375 59.8515625 46.044375 59.8515625 51.484375 C55.12479416 50.53902133 51.04703887 49.13208507 46.5703125 47.421875 C40.94105499 45.48075172 35.43938327 45.20628545 29.5390625 44.921875 C26.6721875 44.7775 23.8053125 44.633125 20.8515625 44.484375 C20.5215625 36.894375 20.1915625 29.304375 19.8515625 21.484375 C18.2015625 21.154375 16.5515625 20.824375 14.8515625 20.484375 C14.8515625 29.064375 14.8515625 37.644375 14.8515625 46.484375 C8.8515625 49.484375 8.8515625 49.484375 6.8515625 49.484375 C6.8515625 39.584375 6.8515625 29.684375 6.8515625 19.484375 C4.5415625 19.154375 2.2315625 18.824375 -0.1484375 18.484375 C-0.0855957 19.48702393 -0.02275391 20.48967285 0.04199219 21.52270508 C0.26144112 25.29170911 0.39770468 29.06017135 0.51074219 32.83374023 C0.57059865 34.45710543 0.65213262 36.07983718 0.75683594 37.70092773 C1.58274218 50.83040791 1.58274218 50.83040791 -1.29147339 55.23669434 C-3.67929831 57.90566001 -6.36566223 60.070395 -9.21337891 62.22827148 C-12.91487996 65.07351946 -14.54977084 67.51911326 -16.7109375 71.609375 C-17.02554932 72.20355225 -17.34016113 72.79772949 -17.66430664 73.40991211 C-22.5344465 82.82653924 -23.29100116 89.33770256 -24.1484375 100.484375 C-50.2184375 100.484375 -76.2884375 100.484375 -103.1484375 100.484375 C-102.8184375 98.504375 -102.4884375 96.524375 -102.1484375 94.484375 C-102.01272149 92.75992642 -101.90670519 91.03285576 -101.83203125 89.3046875 C-101.79013672 88.3765625 -101.74824219 87.4484375 -101.70507812 86.4921875 C-101.66576172 85.54085937 -101.62644531 84.58953125 -101.5859375 83.609375 C-101.54275391 82.63484375 -101.49957031 81.6603125 -101.45507812 80.65625 C-101.34961476 78.26574698 -101.24749575 75.87515056 -101.1484375 73.484375 C-100.53025146 73.31421875 -99.91206543 73.1440625 -99.27514648 72.96875 C-79.65624726 67.49184523 -62.30811639 60.78071226 -47.67172241 46.01985168 C-45.91779068 44.25188218 -44.15290576 42.49523143 -42.38720703 40.73901367 C-38.51399289 36.8837158 -34.6439286 33.02527187 -30.77490234 29.16577148 C-29.11174019 27.50764135 -27.44768206 25.85040941 -25.78271484 24.1940918 C-23.36315239 21.78674452 -20.94690989 19.3761063 -18.53125 16.96484375 C-17.79560822 16.23436325 -17.05996643 15.50388275 -16.30203247 14.75126648 C-12.20643078 10.65610415 -8.35011611 6.47709175 -4.69244385 1.98353577 C-3.1484375 0.484375 -3.1484375 0.484375 0 0 Z " fill="#1C5635" transform="translate(427.1484375,351.515625)"/>
<path d="M0 0 C9.24 0 18.48 0 28 0 C33.54624693 14.05294089 38.72857506 28.21168268 43.8125 42.4375 C45.39796311 46.86522155 46.98540606 51.29222933 48.57421875 55.71875 C48.95852051 56.78959335 49.34282227 57.86043671 49.73876953 58.96372986 C51.9236771 65.04070987 54.13339507 71.10721383 56.39453125 77.15625 C56.63692032 77.8050563 56.87930939 78.45386261 57.12904358 79.12232971 C58.19748626 81.97653294 59.27361935 84.82759271 60.35864258 87.67553711 C60.71724365 88.6269458 61.07584473 89.57835449 61.4453125 90.55859375 C61.74969238 91.35579834 62.05407227 92.15300293 62.36767578 92.97436523 C63 95 63 95 63 98 C54.75 98 46.5 98 38 98 C36.02 92.39 34.04 86.78 32 81 C13.685 80.505 13.685 80.505 -5 80 C-5.66 82.97 -6.32 85.94 -7 89 C-7.99 91.97 -8.98 94.94 -10 98 C-18.25 98 -26.5 98 -35 98 C-31.62409227 86.74697423 -31.62409227 86.74697423 -29.79296875 81.61328125 C-29.37821289 80.44692139 -28.96345703 79.28056152 -28.53613281 78.07885742 C-28.08671458 76.82335983 -27.63716637 75.56790875 -27.1875 74.3125 C-26.71046615 72.97571935 -26.23358228 71.63888517 -25.75683594 70.30200195 C-24.72740626 67.4172107 -23.69609433 64.53310057 -22.66357422 61.64941406 C-21.2137651 57.59961609 -19.76901047 53.54803087 -18.32514954 49.49610901 C-17.10226302 46.06609231 -15.87683848 42.63698601 -14.65078735 39.20809937 C-14.06114813 37.55816029 -13.47223219 35.9079625 -12.88412476 34.25747681 C-8.78414232 22.75702239 -4.46617534 11.36380907 0 0 Z " fill="#1E5637" transform="translate(585,343)"/>
<path d="M0 0 C0.9384375 -0.02449219 1.876875 -0.04898437 2.84375 -0.07421875 C12.96557945 -0.11616003 21.92046853 3.28241459 29.25 10.375 C31.60118832 13.21057665 33.46873044 16.15501271 35.25 19.375 C35.66507813 20.09042969 36.08015625 20.80585938 36.5078125 21.54296875 C41.51670219 31.71837053 40.34770888 44.76871417 37.25 55.375 C34.23685682 63.83268406 28.25379638 71.11336972 20.3125 75.3125 C9.44994106 80.08544256 -3.19311361 81.55355271 -14.625 77.8125 C-24.16031115 73.77451534 -31.4327202 67.10256744 -36.00390625 57.83203125 C-40.12670716 47.41729028 -40.8687976 33.3120491 -36.90625 22.671875 C-31.6884473 12.30678045 -24.69808755 5.83626393 -14.0859375 1.21484375 C-9.37226473 0.02814627 -4.84311909 0.00654476 0 0 Z " fill="#1E5436" transform="translate(841.75,362.625)"/>
<path d="M0 0 C6.48095226 5.00678281 11.61318527 10.81776758 15.81640625 17.86328125 C15.81640625 18.52328125 15.81640625 19.18328125 15.81640625 19.86328125 C11.57282078 21.09497346 7.32080781 22.29453566 3.06640625 23.48828125 C1.85984375 23.83890625 0.65328125 24.18953125 -0.58984375 24.55078125 C-1.75 24.87304688 -2.91015625 25.1953125 -4.10546875 25.52734375 C-5.1737793 25.8310791 -6.24208984 26.13481445 -7.34277344 26.44775391 C-12.05883815 27.13757362 -14.52273015 24.66459442 -18.18359375 21.98828125 C-26.23436051 16.59466411 -35.4717113 13.47586947 -45.18359375 14.86328125 C-55.36084238 16.89873098 -64.59511163 20.95173987 -71.09375 29.32421875 C-72.64574408 31.80283337 -73.97565455 34.19962045 -75.18359375 36.86328125 C-75.45357178 37.43892822 -75.7235498 38.0145752 -76.00170898 38.60766602 C-78.00472468 43.28254169 -78.39495806 47.16389464 -78.29296875 52.22119141 C-78.09298965 63.22629101 -78.09298965 63.22629101 -81.1484375 67.8125 C-83.72197248 70.02121955 -86.4125254 71.91111405 -89.18359375 73.86328125 C-90.93910305 75.67284582 -92.64969197 77.52726033 -94.30859375 79.42578125 C-95.05367187 80.27269531 -95.79875 81.11960937 -96.56640625 81.9921875 C-97.36691406 82.91837891 -97.36691406 82.91837891 -98.18359375 83.86328125 C-101.59891227 81.18694978 -102.54628441 77.59501008 -103.80859375 73.61328125 C-104.02515625 72.97003906 -104.24171875 72.32679688 -104.46484375 71.6640625 C-109.44940127 56.37193233 -108.12333123 38.82692392 -100.93359375 24.42578125 C-97.86206844 18.75279634 -94.48012418 13.67241293 -90.18359375 8.86328125 C-89.57902344 8.1775 -88.97445312 7.49171875 -88.3515625 6.78515625 C-64.38535177 -18.79181814 -27.71781777 -18.60324702 0 0 Z " fill="#1C5535" transform="translate(291.18359375,378.13671875)"/>
<path d="M0 0 C8.84861655 6.26159085 13.6169599 14.08089326 15.72265625 24.609375 C15.72265625 29.229375 15.72265625 33.849375 15.72265625 38.609375 C-4.07734375 38.609375 -23.87734375 38.609375 -44.27734375 38.609375 C-41.48756013 50.37115247 -41.48756013 50.37115247 -33.27734375 58.609375 C-26.68714502 62.40344656 -20.73017117 62.51970894 -13.27734375 61.609375 C-6.66372856 59.14448468 -3.09481324 54.33557924 0.72265625 48.609375 C3.76171875 48.31640625 3.76171875 48.31640625 7.34765625 48.421875 C8.53617188 48.44894531 9.7246875 48.47601563 10.94921875 48.50390625 C11.86445312 48.53871094 12.7796875 48.57351563 13.72265625 48.609375 C12.74438244 56.43556546 9.01344961 62.09552109 2.84765625 66.984375 C-6.65817368 73.55833018 -17.04623046 74.39791856 -28.27734375 73.609375 C-38.0071581 71.58283901 -45.95208968 66.29508719 -51.65234375 58.171875 C-56.66618508 50.44586804 -57.83584597 43.38871101 -57.77734375 34.359375 C-57.77162354 33.34029053 -57.76590332 32.32120605 -57.76000977 31.27124023 C-57.50658395 20.58895802 -54.78424439 12.18930377 -47.296875 4.359375 C-33.91195153 -7.23916604 -15.26115526 -9.31899017 0 0 Z " fill="#303E4A" transform="translate(1044.27734375,368.390625)"/>
<path d="M0 0 C-0.74059296 5.51741753 -1.70140595 10.97079507 -2.75 16.4375 C-2.92047852 17.33041748 -3.09095703 18.22333496 -3.26660156 19.14331055 C-5.38191129 30.12191938 -7.68638876 41.06176018 -10 52 C-13.7658106 48.81968878 -17.48438989 45.64858175 -20.9375 42.125 C-21.52402344 41.52945313 -22.11054687 40.93390625 -22.71484375 40.3203125 C-23.13894531 39.88460937 -23.56304688 39.44890625 -24 39 C-26.93529349 40.32483081 -29.01037418 41.76144662 -31.28051758 44.03759766 C-31.89828568 44.65228912 -32.51605377 45.26698059 -33.15254211 45.90029907 C-33.80989853 46.564841 -34.46725494 47.22938293 -35.14453125 47.9140625 C-35.83254318 48.60253265 -36.52055511 49.29100281 -37.22941589 50.00033569 C-38.68502068 51.45895983 -40.13819597 52.92001191 -41.58911133 54.38330078 C-43.78878304 56.60108772 -45.99620887 58.81090877 -48.20507812 61.01953125 C-49.62286572 62.44224022 -51.04019781 63.86540331 -52.45703125 65.2890625 C-53.10831497 65.94145905 -53.75959869 66.59385559 -54.43061829 67.26602173 C-58.2385581 71.11269423 -61.85623349 75.0621071 -65.34941101 79.19760132 C-71.48362411 85.89599666 -78.84174766 89.96578271 -87.9375 90.5 C-99.39011688 90.06287722 -107.64589838 80.5231851 -115.125 72.78515625 C-115.65504639 72.24060791 -116.18509277 71.69605957 -116.73120117 71.13500977 C-117.76512879 70.06596341 -118.78924144 68.98731345 -119.80200195 67.89819336 C-122.72063354 64.86644805 -124.74626369 63.30992614 -129 63 C-124.70214922 57.96836982 -120.36574458 52.97281557 -116 48 C-112.25028371 50.07311473 -109.41781638 52.35548109 -106.42578125 55.4140625 C-105.59369141 56.25710938 -104.76160156 57.10015625 -103.90429688 57.96875 C-103.04900391 58.8453125 -102.19371094 59.721875 -101.3125 60.625 C-99.60247069 62.36935703 -97.89033748 64.11165486 -96.17578125 65.8515625 C-95.42208252 66.62322754 -94.66838379 67.39489258 -93.8918457 68.18994141 C-91.50431907 70.47425196 -90.47514732 70.95019145 -87.16796875 71.296875 C-79.72892341 70.59975115 -73.73678442 61.77018602 -68.9609375 56.46875 C-62.94997959 49.85379364 -56.65686634 43.54317873 -50.3125 37.25 C-49.2061416 36.14867715 -48.1000208 35.04711555 -46.99414062 33.9453125 C-44.33214353 31.29413415 -41.66700511 28.64614155 -39 26 C-40.77496314 22.15577404 -43.0523933 19.80754485 -46.125 16.875 C-47.78723433 15.28810774 -49.42224346 13.67090822 -51 12 C-51 11.34 -51 10.68 -51 10 C-46.07509016 8.89447855 -41.14953288 7.79190268 -36.22338867 6.69189453 C-34.55231507 6.31832826 -32.88141212 5.94399771 -31.21069336 5.56884766 C-6.40333333 0 -6.40333333 0 0 0 Z " fill="#C19D38" transform="translate(565,271)"/>
<path d="M0 0 C54.18504902 0 54.18504902 0 68.18359375 12.98046875 C78.41430586 24.3552605 81.82173231 38.90721785 81.37890625 53.83203125 C80.59778499 65.82882194 75.0853377 78.45444029 66.375 86.75 C47.08234615 102.29436682 24.29323981 98 0 98 C0 65.66 0 33.32 0 0 Z M13 11 C13 36.08 13 61.16 13 87 C38.92845669 88.32291715 38.92845669 88.32291715 58.97265625 76.37109375 C61.73387281 73.14169403 63.58002234 69.98982854 65 66 C65.35320312 65.16339844 65.70640625 64.32679688 66.0703125 63.46484375 C67.39037398 58.54511881 67.36847182 53.822395 67.375 48.75 C67.41173828 47.27080078 67.41173828 47.27080078 67.44921875 45.76171875 C67.49301552 34.68113668 63.98669292 27.0931016 56.36328125 19.1328125 C44.37464119 8.31331254 28.36930691 11 13 11 Z " fill="#32414C" transform="translate(895,343)"/>
<path d="M0 0 C3.0625 1.6875 3.0625 1.6875 4.70703125 3.40625 C8.51627527 5.4782766 11.79260981 3.99163616 15.8125 2.875 C17.00166016 2.56852539 17.00166016 2.56852539 18.21484375 2.25585938 C20.16847176 1.74979911 22.11614139 1.22083626 24.0625 0.6875 C27.74383195 6.05985028 30.0625 10.06766563 30.0625 16.6875 C30.7225 17.0175 31.3825 17.3475 32.0625 17.6875 C26.1225 19.0075 20.1825 20.3275 14.0625 21.6875 C13.7325 23.9975 13.4025 26.3075 13.0625 28.6875 C10.68561679 35.39869965 5.45888948 39.98930526 -0.8125 43.125 C-6.65926252 44.17741725 -11.99179195 44.45907388 -17.5625 42.25 C-20.75764461 41.36133164 -20.75764461 41.36133164 -22.65234375 42.62109375 C-24.89460899 44.52204166 -26.89592101 46.5706705 -28.9375 48.6875 C-30.05979836 49.79311371 -31.18503201 50.89575234 -32.3125 51.99609375 C-37.78810061 57.3661971 -43.19750889 62.7642133 -48.15625 68.62109375 C-51.02953558 71.95435707 -54.03662386 75.16562835 -57.03198242 78.38916016 C-59.17400136 80.70758974 -60.97349642 82.75285011 -62.50390625 85.53125 C-66.68548709 89.23627829 -71.83103649 88.20195483 -77.1875 88 C-78.87746094 87.96616211 -78.87746094 87.96616211 -80.6015625 87.93164062 C-83.38155232 87.87274254 -86.15885332 87.79054201 -88.9375 87.6875 C-88.9375 87.0275 -88.9375 86.3675 -88.9375 85.6875 C-88.2775 85.6875 -87.6175 85.6875 -86.9375 85.6875 C-86.71449219 85.14609375 -86.49148437 84.6046875 -86.26171875 84.046875 C-84.51691037 80.93813086 -82.18526945 78.50787912 -79.75 75.9375 C-76.61185362 72.59132417 -73.51461347 69.22369623 -70.50390625 65.76171875 C-61.65319846 55.59930246 -52.2597074 45.91856073 -42.75 36.375 C-41.67226318 35.29037476 -41.67226318 35.29037476 -40.57275391 34.18383789 C-39.89519043 33.50828857 -39.21762695 32.83273926 -38.51953125 32.13671875 C-37.92374268 31.54205811 -37.3279541 30.94739746 -36.71411133 30.3347168 C-34.9375 28.6875 -34.9375 28.6875 -32.74291992 27.13891602 C-30.65184849 25.78449976 -30.65184849 25.78449976 -30.46875 23.015625 C-30.4584375 21.99984375 -30.448125 20.9840625 -30.4375 19.9375 C-30.07561875 13.40790356 -28.99368548 9.75079289 -24.2578125 5.00390625 C-17.17721732 -1.33216282 -9.25860599 -3.80765182 0 0 Z " fill="#C39E38" transform="translate(258.9375,410.3125)"/>
<path d="M0 0 C0.61090626 17.85203842 -4.664073 34.26804653 -16.5078125 47.8828125 C-28.88650475 60.82577562 -45.5028753 69.80325013 -63.72119141 70.68164062 C-78.19512777 70.72219333 -90.74489267 66.47057913 -103 59 C-101.69311561 55.17518503 -100.18953972 52.82788401 -97.3046875 50.01171875 C-96.58925781 49.30595703 -95.87382812 48.60019531 -95.13671875 47.87304688 C-94.01716797 46.79120117 -94.01716797 46.79120117 -92.875 45.6875 C-92.12089844 44.94693359 -91.36679688 44.20636719 -90.58984375 43.44335938 C-88.73316465 41.62193367 -86.86984148 39.80789464 -85 38 C-84.38253906 38.21148682 -83.76507813 38.42297363 -83.12890625 38.64086914 C-77.304835 40.52848432 -72.11619851 41.52194456 -66 41.4375 C-64.82945068 41.42614014 -64.82945068 41.42614014 -63.63525391 41.41455078 C-57.43992462 41.23790976 -52.38398326 40.20833267 -47 37 C-46.29746094 36.5875 -45.59492188 36.175 -44.87109375 35.75 C-36.76313416 30.33443686 -31.85384404 22.1623414 -29 13 C-28.81566406 11.82566406 -28.63132812 10.65132813 -28.44140625 9.44140625 C-27 6 -27 6 -25.3425293 4.98461914 C-23.16159833 4.20974965 -21.006123 3.64068526 -18.75 3.125 C-17.99847656 2.92648437 -17.24695313 2.72796875 -16.47265625 2.5234375 C-10.9922546 1.10790618 -5.68148324 0 0 0 Z " fill="#1D5536" transform="translate(317,428)"/>
<path d="M0 0 C4.29 0 8.58 0 13 0 C13.33 19.14 13.66 38.28 14 58 C19.93099717 51.22318208 19.93099717 51.22318208 25.82910156 44.41821289 C26.93513038 43.14211619 28.04817914 41.87208085 29.16699219 40.60717773 C31.62536272 37.81830225 33.9249936 35.11026086 36.01953125 32.03125 C39.99233126 26.36350823 39.99233126 26.36350823 43.99023438 25.63964844 C49.02914571 25.24388845 53.97531407 25.5375005 59 26 C57.38965677 30.09905548 54.4216171 32.76174035 51.3125 35.75 C47.34885595 39.634582 43.53348749 43.54903963 39.93359375 47.77734375 C37.20740293 50.91108633 34.38419965 53.9523183 31.5625 57 C31.01722656 57.589021 30.47195313 58.17804199 29.91015625 58.78491211 C28.60758713 60.19069821 27.30391116 61.59545859 26 63 C29.4145986 67.81545957 32.98502875 72.12265916 37.22265625 76.23046875 C39.6536143 78.65074127 41.87288311 81.22895875 44.109375 83.828125 C46.24141842 86.27733191 48.43279945 88.66704907 50.625 91.0625 C54.07169661 94.87448753 57.12955552 98.74063077 60 103 C45.60200107 104.82295883 45.60200107 104.82295883 39.73828125 100.71484375 C37.30772189 98.21995718 35.21634746 95.48526169 33.19238281 92.65478516 C31.37284612 90.1296378 29.36583335 87.76605243 27.375 85.375 C26.74335937 84.57835937 26.11171875 83.78171875 25.4609375 82.9609375 C21.77466376 78.52570655 17.85801233 74.28668037 14 70 C13.67 80.89 13.34 91.78 13 103 C8.71 103 4.42 103 0 103 C0 69.01 0 35.02 0 0 Z " fill="#31404B" transform="translate(1146,338)"/>
<path d="M0 0 C7.59 0 15.18 0 23 0 C23.33 3.63 23.66 7.26 24 11 C24.99 9.9275 25.98 8.855 27 7.75 C33.69818849 1.1190624 38.14136774 0 48 0 C48 7.92 48 15.84 48 24 C45.03 24.12375 45.03 24.12375 42 24.25 C33.83443958 24.88371186 33.83443958 24.88371186 27 29 C23.99369432 34.713339 23.53457907 39.47648532 23.48828125 45.87109375 C23.47033005 46.793423 23.45237885 47.71575226 23.43388367 48.66603088 C23.38003264 51.58980848 23.34596615 54.5134252 23.3125 57.4375 C23.27930466 59.42905872 23.24481296 61.42059629 23.20898438 63.41210938 C23.12189818 68.27475951 23.06161462 73.13669464 23 78 C15.41 78 7.82 78 0 78 C0 52.26 0 26.52 0 0 Z " fill="#1F5537" transform="translate(749,363)"/>
<path d="M0 0 C4.53963241 3.66855904 8.1234868 7.82603703 9.7421875 13.5234375 C9.7421875 15.5034375 9.7421875 17.4834375 9.7421875 19.5234375 C5.4521875 19.5234375 1.1621875 19.5234375 -3.2578125 19.5234375 C-3.9178125 17.5434375 -4.5778125 15.5634375 -5.2578125 13.5234375 C-8.51726055 9.7625359 -10.67772182 7.73405715 -15.74609375 7.3203125 C-21.28932406 7.22830868 -25.57901539 7.16430111 -30.2578125 10.5234375 C-32.43003629 13.16788385 -32.25674571 14.55330768 -32.1328125 18.0234375 C-31.1370233 22.00659431 -30.41078476 22.99390546 -27.2578125 25.5234375 C-24.75440214 26.4775245 -22.38942566 27.25788564 -19.8203125 27.9609375 C-18.38453808 28.38505781 -16.94965019 28.81218985 -15.515625 29.2421875 C-14.80051758 29.45488281 -14.08541016 29.66757812 -13.34863281 29.88671875 C4.9022889 35.44468276 4.9022889 35.44468276 9.89453125 43.34765625 C11.8750253 48.43122855 11.53277653 54.67352974 10.08984375 59.875 C7.46936386 65.70078791 3.33291278 69.79336078 -2.40625 72.55859375 C-12.46739258 76.15185896 -24.06921795 75.95332315 -33.88671875 71.78125 C-40.53787365 68.25296025 -44.80176203 63.70672489 -47.2578125 56.5234375 C-47.5878125 54.5434375 -47.9178125 52.5634375 -48.2578125 50.5234375 C-43.6378125 50.5234375 -39.0178125 50.5234375 -34.2578125 50.5234375 C-33.6803125 51.7815625 -33.1028125 53.0396875 -32.5078125 54.3359375 C-30.86543093 57.60913458 -29.57960798 59.75873365 -26.2578125 61.5234375 C-20.26107197 63.36959561 -13.66728261 63.34093629 -7.7578125 61.3359375 C-4.16569624 58.73165321 -2.62660163 56.36738314 -1.7578125 52.0234375 C-2.4870061 48.37746948 -4.25697855 46.54078533 -7.2578125 44.5234375 C-11.41998846 42.8972116 -15.69680746 41.75010089 -20.0078125 40.5859375 C-38.96080767 35.46263914 -38.96080767 35.46263914 -43.72583008 28.32421875 C-46.32311428 23.30925287 -47.38743282 18.09226752 -46.2578125 12.5234375 C-43.52491378 5.92094766 -38.50450716 0.47721195 -32.0078125 -2.51171875 C-21.71450926 -6.05828958 -9.32727286 -6.0998428 0 0 Z " fill="#323F4A" transform="translate(1119.2578125,367.4765625)"/>
<path d="M0 0 C1.42209261 0.29567607 2.8482214 0.5724527 4.27734375 0.83203125 C12.4428584 2.37030418 18.87627643 4.43524618 25.703125 9.4140625 C29.56071335 12.07763541 32.84612208 13.15167864 37.5 13.25 C40.9676411 13.5736465 42.68299392 14.10969074 45 16.75 C47 20 47 20 48 25 C40.74 25 33.48 25 26 25 C26 27.64 26 30.28 26 33 C33.59 33 41.18 33 49 33 C49 38.28 49 43.56 49 49 C44.27323166 48.05464633 40.19547637 46.64771007 35.71875 44.9375 C30.08949249 42.99637672 24.58782077 42.72191045 18.6875 42.4375 C15.820625 42.293125 12.95375 42.14875 10 42 C9.67 34.41 9.34 26.82 9 19 C7.35 18.67 5.7 18.34 4 18 C4 26.58 4 35.16 4 44 C-2 47 -2 47 -4 47 C-4 37.1 -4 27.2 -4 17 C-8.62 16.34 -13.24 15.68 -18 15 C-18 26.55 -18 38.1 -18 50 C-20.64 50 -23.28 50 -26 50 C-29.40359694 12.70817371 -29.40359694 12.70817371 -23.13256836 4.21484375 C-15.88763788 -3.11460918 -9.62105276 -3.01974649 0 0 Z " fill="#C1A144" transform="translate(438,354)"/>
<path d="M0 0 C6.05320437 3.55121323 9.89029723 8.77310739 12.9375 15 C14.28619663 22.34290387 14.31430359 29.47066661 10.5 36.0625 C6.01928669 42.40491814 1.19625813 47.22024608 -6.5 49.0625 C-14.88106696 50.24197356 -21.57338038 48.99981364 -28.5 44.0625 C-34.74084906 38.64591402 -37.79822637 32.70300553 -38.8125 24.55078125 C-39.19149203 16.81697505 -36.58439702 12.09976423 -32.3125 5.875 C-23.49477853 -2.94272147 -11.67401057 -5.11517715 0 0 Z " fill="#F9FBF7" transform="translate(470.5,427.9375)"/>
<path d="M0 0 C6.27 0 12.54 0 19 0 C19 18.48 19 36.96 19 56 C16.03 55.67 13.06 55.34 10 55 C8.25003613 54.87426573 6.49868661 54.76483978 4.74609375 54.68359375 C3.43608398 54.62075195 3.43608398 54.62075195 2.09960938 54.55664062 C1.22111328 54.51732422 0.34261719 54.47800781 -0.5625 54.4375 C-1.47580078 54.39431641 -2.38910156 54.35113281 -3.33007812 54.30664062 C-5.55327991 54.20188243 -7.77656707 54.09970983 -10 54 C-8.58936668 43.39102274 -6.8090922 32.86742985 -4.91333008 22.33618164 C-4.4303091 19.64747224 -3.95428007 16.95757996 -3.47851562 14.26757812 C-3.17229303 12.55721677 -2.865668 10.84692741 -2.55859375 9.13671875 C-2.34607216 7.93072273 -2.34607216 7.93072273 -2.1292572 6.70036316 C-1.11458181 1.11458181 -1.11458181 1.11458181 0 0 Z " fill="#F9FCFA" transform="translate(252,286)"/>
<path d="M0 0 C-0.74059296 5.51741753 -1.70140595 10.97079507 -2.75 16.4375 C-2.92047852 17.33041748 -3.09095703 18.22333496 -3.26660156 19.14331055 C-5.38191129 30.12191938 -7.68638876 41.06176018 -10 52 C-15.29047629 47.57493979 -20.241534 42.91876057 -25.12109375 38.046875 C-25.86585464 37.3054425 -26.61061554 36.56401001 -27.37794495 35.80010986 C-28.93808381 34.24500222 -30.49689887 32.68856545 -32.05444336 31.13085938 C-34.44951222 28.73799886 -36.85249308 26.35327308 -39.25585938 23.96875 C-40.77392568 22.45361396 -42.29152101 20.93800587 -43.80859375 19.421875 C-44.53034286 18.7073114 -45.25209198 17.9927478 -45.99571228 17.25653076 C-46.65382401 16.59534241 -47.31193573 15.93415405 -47.98999023 15.25292969 C-48.57288315 14.67146179 -49.15577606 14.0899939 -49.7563324 13.49090576 C-51 12 -51 12 -51 10 C-46.07509016 8.89447855 -41.14953288 7.79190268 -36.22338867 6.69189453 C-34.55231507 6.31832826 -32.88141212 5.94399771 -31.21069336 5.56884766 C-6.40333333 0 -6.40333333 0 0 0 Z " fill="#1F5636" transform="translate(565,271)"/>
<path d="M0 0 C0.515625 0.66 1.03125 1.32 1.5625 2 C4.61208585 5.75333644 7.7986681 9.37602035 11 13 C9.58261511 16.25207092 7.87473588 18.31361067 5.3125 20.75 C2.02998108 23.95016182 -1.0214148 27.2477004 -4.0078125 30.72265625 C-6.97018056 34.10904955 -10.03060868 37.40426244 -13.09301758 40.70019531 C-15.2355903 43.0190337 -17.03566642 45.06475101 -18.56640625 47.84375 C-22.74798709 51.54877829 -27.89353649 50.51445483 -33.25 50.3125 C-34.37664062 50.28994141 -35.50328125 50.26738281 -36.6640625 50.24414062 C-39.44405232 50.18524254 -42.22135332 50.10304201 -45 50 C-45 49.34 -45 48.68 -45 48 C-44.34 48 -43.68 48 -43 48 C-42.77699219 47.45859375 -42.55398437 46.9171875 -42.32421875 46.359375 C-40.57941037 43.25063086 -38.24776945 40.82037912 -35.8125 38.25 C-32.68557889 34.91579357 -29.59953236 31.56068817 -26.6015625 28.109375 C-23.01185921 23.98635279 -19.30833913 19.98113175 -15.5625 16 C-14.91015381 15.30519531 -14.25780762 14.61039062 -13.58569336 13.89453125 C-9.14237399 9.17623619 -4.64986976 4.51616743 0 0 Z " fill="#1F5536" transform="translate(215,448)"/>
<path d="M0 0 C5.51557428 1.7363845 8.2163575 5.12030798 11 10 C13.40423296 17.21269888 12.23955345 24.02204594 9.2109375 30.86328125 C6.94745272 34.85723666 4.26145171 36.5795161 0 38 C-4.9388636 38.51853818 -8.85354834 38.55199525 -13.375 36.375 C-17.81975151 32.35355816 -20.6948345 28.18679971 -21.2734375 22.14453125 C-21.50224668 14.63782993 -21.04431295 9.71876148 -16 4 C-15.29875 3.175 -14.5975 2.35 -13.875 1.5 C-9.3428581 -0.86459577 -5.00129719 -0.58925446 0 0 Z " fill="#F9FCFA" transform="translate(698,383)"/>
<path d="M0 0 C4.90946693 2.32083891 7.35714805 5.30159653 10 10 C12.05935009 16.60083075 11.74779289 23.88589862 9.05859375 30.2421875 C6.90086116 33.8251383 3.72389025 36.13805488 0 38 C-5.15122483 38.51343908 -9.62651415 38.57436681 -14.4375 36.5625 C-19.72934087 31.27065913 -21.24212183 25.84719948 -21.5 18.4375 C-21.24434794 11.14289446 -19.65524838 6.59048622 -14.4375 1.5 C-9.55375675 -0.63108796 -5.24808614 -0.7664865 0 0 Z " fill="#FAFCFB" transform="translate(847,383)"/>
<path d="M0 0 C5.89003864 3.80821464 9.70303239 9.5952995 11.8125 16.171875 C11.8125 17.821875 11.8125 19.471875 11.8125 21.171875 C-3.6975 21.171875 -19.2075 21.171875 -35.1875 21.171875 C-34.12916922 12.70522876 -32.54026293 7.89452915 -26.1875 2.296875 C-18.63431994 -3.05329421 -8.53959921 -3.77165632 0 0 Z " fill="#F9FBFB" transform="translate(1035.1875,375.828125)"/>
<path d="M0 0 C3.88690598 1.99898022 6.39363397 4.9540594 8 9 C8.23974502 13.46724889 7.53895094 17.09533235 5.25 20.9375 C1.78218186 24.1163333 -0.7879917 24.86778091 -5.4375 25.375 C-9.77324712 24.91860557 -11.71260746 23.83911174 -15 21 C-17.64201025 16.94891762 -18.70236884 13.8162435 -18 9 C-13.6180227 1.01854135 -8.94638556 -1.52398997 0 0 Z " fill="#C39E3B" transform="translate(463,439)"/>
<path d="M0 0 C0.66 0 1.32 0 2 0 C3.57048548 4.51932257 5.13696237 9.04000659 6.69970703 13.56201172 C7.23212935 15.10080641 7.76565366 16.63922027 8.30029297 18.17724609 C9.06766744 20.38540529 9.83109507 22.59489454 10.59375 24.8046875 C10.83436157 25.49432587 11.07497314 26.18396423 11.32287598 26.89450073 C13 31.77225659 13 31.77225659 13 34 C5.08 34 -2.84 34 -11 34 C-7.625 21.625 -7.625 21.625 -5.95703125 16.89453125 C-5.60576172 15.89228516 -5.25449219 14.89003906 -4.89257812 13.85742188 C-4.53615234 12.85259766 -4.17972656 11.84777344 -3.8125 10.8125 C-3.44447266 9.76513672 -3.07644531 8.71777344 -2.69726562 7.63867188 C-1.80158738 5.09122337 -0.90246184 2.54505148 0 0 Z " fill="#F3F8F5" transform="translate(598,370)"/>
<path d="M0 0 C1.98 0 3.96 0 6 0 C6 11.55 6 23.1 6 35 C4.02 35 2.04 35 0 35 C0 23.45 0 11.9 0 0 Z " fill="#FCFEFC" transform="translate(413,368)"/>
<path d="M0 0 C2.31 0.33 4.62 0.66 7 1 C7 9.91 7 18.82 7 28 C4.69 28.66 2.38 29.32 0 30 C0 20.1 0 10.2 0 0 Z " fill="#1C5635" transform="translate(434,371)"/>
<path d="M0 0 C2.31 0.33 4.62 0.66 7 1 C7 9.58 7 18.16 7 27 C6.67 27 6.34 27 6 27 C6 18.75 6 10.5 6 2 C4.68 2 3.36 2 2 2 C2 11.24 2 20.48 2 30 C1.34 30 0.68 30 0 30 C0 20.1 0 10.2 0 0 Z " fill="#295336" transform="translate(434,371)"/>
<path d="M0 0 C7.26 0 14.52 0 22 0 C22 5.28 22 10.56 22 16 C21.01 16 20.02 16 19 16 C19.33 11.05 19.66 6.1 20 1 C13.4 1 6.8 1 0 1 C0 0.67 0 0.34 0 0 Z " fill="#BBA25C" transform="translate(465,387)"/>
<path d="M0 0 C0.886875 -0.01417969 1.77375 -0.02835937 2.6875 -0.04296875 C5 0.1875 5 0.1875 7 2.1875 C5.75283203 2.24357422 5.75283203 2.24357422 4.48046875 2.30078125 C3.39378906 2.36652344 2.30710937 2.43226563 1.1875 2.5 C-0.43091797 2.58701172 -0.43091797 2.58701172 -2.08203125 2.67578125 C-5.24609546 3.2306573 -5.98806153 3.82014023 -8 6.1875 C-8.66 6.1875 -9.32 6.1875 -10 6.1875 C-10 6.8475 -10 7.5075 -10 8.1875 C-10.66 7.8575 -11.32 7.5275 -12 7.1875 C-6.22540907 0.0452428 -6.22540907 0.0452428 0 0 Z " fill="#BB9E4D" transform="translate(458,438.8125)"/>
<path d="M0 0 C2.00181879 3.00272818 2.86726992 5.60180976 4 9 C6.33285443 12.49928164 7.20795069 12.6329098 11.125 13.6875 C12.03507812 13.93886719 12.94515625 14.19023437 13.8828125 14.44921875 C14.58148438 14.63097656 15.28015625 14.81273437 16 15 C16 15.33 16 15.66 16 16 C11.90446218 16.32764303 9.46139337 16.23069669 5.75 14.375 C2.67527863 11.71955882 1.37193141 9.81092057 0 6 C-0.1875 2.625 -0.1875 2.625 0 0 Z " fill="#C0A660" transform="translate(445,448)"/>
<path d="M0 0 C1.80078125 1.51953125 1.80078125 1.51953125 3 3 C1.97519531 2.97679687 0.95039063 2.95359375 -0.10546875 2.9296875 C-1.46613851 2.91091964 -2.8268162 2.89272053 -4.1875 2.875 C-4.86103516 2.85824219 -5.53457031 2.84148437 -6.22851562 2.82421875 C-10.28807807 2.78461326 -13.34998815 3.19979998 -17 5 C-16.67 4.01 -16.34 3.02 -16 2 C-11.09571273 -0.38926816 -5.36790245 -0.85923396 0 0 Z " fill="#FBF6DA" transform="translate(256,407)"/>
<path d="M0 0 C-1.53643852 3.68069887 -3.78150945 5.98775204 -6.625 8.75 C-7.85089844 9.94882812 -7.85089844 9.94882812 -9.1015625 11.171875 C-9.72804687 11.77515625 -10.35453125 12.3784375 -11 13 C-11.66 12.34 -12.32 11.68 -13 11 C-11.21427748 9.16052663 -9.42197551 7.32842259 -7.625 5.5 C-7.11710938 4.97535156 -6.60921875 4.45070313 -6.0859375 3.91015625 C-2.2265625 0 -2.2265625 0 0 0 Z " fill="#28563C" transform="translate(211,379)"/>
<path d="M0 0 C4.88049925 3.9419417 9.0580583 8.11950075 13 13 C12.01 13.66 11.02 14.32 10 15 C9.79375 14.29875 9.5875 13.5975 9.375 12.875 C7.03590922 7.98417381 3.13071136 3.97335052 -2 2 C-1.34 1.34 -0.68 0.68 0 0 Z " fill="#B0A556" transform="translate(527,296)"/>
<path d="M0 0 C0.33 0.99 0.66 1.98 1 3 C-0.32 4.32 -1.64 5.64 -3 7 C-2.01 7.99 -1.02 8.98 0 10 C-0.33 10.66 -0.66 11.32 -1 12 C-1.66 11.34 -2.32 10.68 -3 10 C-5.57061311 9.35232207 -5.57061311 9.35232207 -8 9 C-7.04270084 7.87411986 -6.08412105 6.7493285 -5.125 5.625 C-4.59132813 4.99851562 -4.05765625 4.37203125 -3.5078125 3.7265625 C-2.38567993 2.44163349 -1.20628025 1.20628025 0 0 Z " fill="#BCA54C" transform="translate(444,325)"/>
<path d="M0 0 C1.32 0 2.64 0 4 0 C4 0.66 4 1.32 4 2 C5.98 2 7.96 2 10 2 C10 2.66 10 3.32 10 4 C12.64 4 15.28 4 18 4 C18 4.33 18 4.66 18 5 C11.98001986 5.21802745 6.64051572 5.28020848 1 3 C0.67 2.01 0.34 1.02 0 0 Z " fill="#C3A75A" transform="translate(237,449)"/>
<path d="M0 0 C0.33 0.99 0.66 1.98 1 3 C-2.63 6.63 -6.26 10.26 -10 14 C-10.66 13.67 -11.32 13.34 -12 13 C-8.04 8.71 -4.08 4.42 0 0 Z " fill="#C0A355" transform="translate(499,324)"/>
<path d="M0 0 C0.33 0 0.66 0 1 0 C1 1.65 1 3.3 1 5 C0.34 5 -0.32 5 -1 5 C-1.02578125 5.98742187 -1.0515625 6.97484375 -1.078125 7.9921875 C-1.13484375 9.27351563 -1.1915625 10.55484375 -1.25 11.875 C-1.29640625 13.15117187 -1.3428125 14.42734375 -1.390625 15.7421875 C-2 19 -2 19 -4.046875 20.4453125 C-4.69140625 20.62835938 -5.3359375 20.81140625 -6 21 C-5.01 19.515 -5.01 19.515 -4 18 C-3.77993114 16.06952252 -3.64308263 14.12880885 -3.5625 12.1875 C-3.24380708 7.31858038 -2.61690207 4.09602063 0 0 Z " fill="#BB9F4E" transform="translate(232,418)"/>
<path d="M0 0 C0.99 0 1.98 0 3 0 C3 3.96 3 7.92 3 12 C1.35 12 -0.3 12 -2 12 C-1.01 11.67 -0.02 11.34 1 11 C1 8.03 1 5.06 1 2 C0.34 1.67 -0.32 1.34 -1 1 C-0.67 0.67 -0.34 0.34 0 0 Z " fill="#3A624B" transform="translate(383,285)"/>
<path d="M0 0 C0.99 0.33 1.98 0.66 3 1 C2.38125 1.2475 1.7625 1.495 1.125 1.75 C-1.43742053 3.2573062 -1.90915987 4.27289968 -3 7 C-3.37125 7.9075 -3.7425 8.815 -4.125 9.75 C-4.41375 10.4925 -4.7025 11.235 -5 12 C-5.66 11.34 -6.32 10.68 -7 10 C-6.67861144 6.63567724 -5.35354137 5.01182596 -2.9375 2.75 C-2.38964844 2.22921875 -1.84179688 1.7084375 -1.27734375 1.171875 C-0.64505859 0.59179688 -0.64505859 0.59179688 0 0 Z " fill="#B79E4B" transform="translate(223,440)"/>
<path d="M0 0 C0.79664063 0.24556641 0.79664063 0.24556641 1.609375 0.49609375 C4.53876764 1.11356377 7.25822936 1.09501925 10.25 1.0625 C11.86648438 1.04896484 11.86648438 1.04896484 13.515625 1.03515625 C14.74539063 1.01775391 14.74539063 1.01775391 16 1 C12.48850945 3.3409937 9.27810433 4.90844524 5 5 C2 2.625 2 2.625 0 0 Z " fill="#F8F1D2" transform="translate(261,411)"/>
<path d="M0 0 C0 3 0 3 -1.53125 4.82421875 C-2.1809375 5.43910156 -2.830625 6.05398438 -3.5 6.6875 C-4.1496875 7.31011719 -4.799375 7.93273437 -5.46875 8.57421875 C-5.9740625 9.04472656 -6.479375 9.51523437 -7 10 C-7.66 9.67 -8.32 9.34 -9 9 C-7.87895467 7.68412059 -6.75303035 6.37239647 -5.625 5.0625 C-4.99851562 4.33160156 -4.37203125 3.60070312 -3.7265625 2.84765625 C-2 1 -2 1 0 0 Z " fill="#2A573E" transform="translate(669,368)"/>
<path d="M0 0 C-1.28519565 2.86697492 -2.57129254 4.97607712 -5 7 C-5.66 7 -6.32 7 -7 7 C-7.33 7.66 -7.66 8.32 -8 9 C-8 6 -8 6 -6.7578125 4.39453125 C-5.94957031 3.61142578 -5.94957031 3.61142578 -5.125 2.8125 C-4.59132812 2.28269531 -4.05765625 1.75289063 -3.5078125 1.20703125 C-2 0 -2 0 0 0 Z " fill="#2B573E" transform="translate(193,361)"/>
<path d="M0 0 C0.33 0.66 0.66 1.32 1 2 C-1.41556126 5.19199167 -3.68003538 7.74716687 -7 10 C-7.66 9.67 -8.32 9.34 -9 9 C-6.03 6.03 -3.06 3.06 0 0 Z " fill="#FDF7DD" transform="translate(533,315)"/>
<path d="M0 0 C0.33 0.99 0.66 1.98 1 3 C-1.31 4.98 -3.62 6.96 -6 9 C-6.66 8.67 -7.32 8.34 -8 8 C-5.36 5.36 -2.72 2.72 0 0 Z " fill="#BEA14E" transform="translate(518,305)"/>
<path d="M0 0 C4.82360189 -0.19294408 8.49646738 0.24252386 13 2 C13 2.33 13 2.66 13 3 C8.07872966 3.16682272 4.49656104 3.24828052 0 1 C0 0.67 0 0.34 0 0 Z " fill="#F7EFD0" transform="translate(466,365)"/>
<path d="M0 0 C0.66 0.33 1.32 0.66 2 1 C-0.31 3.31 -2.62 5.62 -5 8 C-5 5 -5 5 -2.5 2.3125 C-1.675 1.549375 -0.85 0.78625 0 0 Z " fill="#E1EEE7" transform="translate(834,384)"/>
</svg>
