<svg version="1.1" xmlns="http://www.w3.org/2000/svg" style="display: block;" viewBox="0 0 2048 1142" width="669" height="373" preserveAspectRatio="none">
<path transform="translate(0,0)" fill="rgb(27,86,53)" d="M 351.777 401.5 C 404.656 400.246 458.443 401.96 511.382 401.544 C 514.344 401.521 515.575 402.228 517.586 404.109 C 519.915 412.455 509.592 423.046 502.57 426.701 C 510.017 455.028 515.103 481.934 522.881 509.965 C 529.169 510.823 536.609 511.392 543.01 512.035 C 542.561 491.35 540.047 455.863 550.663 437.711 C 556.18 428.279 564.154 425.718 573.917 423.463 L 573.914 440.56 C 571.825 441.7 564.505 445.612 565.083 447.55 C 567.005 453.999 566.59 511.722 568.026 514.077 C 570.087 514.295 571.481 514.235 573.229 515.336 C 571.139 529.577 520.07 569.522 506.88 578.959 C 507.35 543.403 504.976 527.351 494.776 492.759 C 488.798 472.486 482.205 446.761 477.904 426.075 C 460.065 426.174 442.225 426.15 424.386 426.003 C 425.253 451.762 425.156 488.381 424.508 514.101 C 457.759 530.94 479.369 549.539 496.044 583.341 C 487.932 585.318 479.832 587.344 471.745 589.416 C 463.473 575.717 455.834 563.169 443.236 552.778 C 402.681 519.327 325.113 520.753 291.516 564.64 C 285.137 559.355 279.178 553.582 273.695 547.372 C 303.996 524.045 297.408 523.483 335.81 509.275 C 341.03 490.841 347.856 446.71 351.356 426.35 C 345.229 422.421 332.64 410.341 337.165 402.778 C 340.218 400.985 347.804 401.516 351.777 401.5 z M 360.077 504.796 C 369.885 504.348 379.711 504.526 389.495 505.329 C 394.506 506.084 399.481 506.737 404.395 507.981 C 403.892 482.266 403.454 451.815 404.294 426.233 L 375.069 426.009 C 370.791 449.257 365.692 482.457 360.077 504.796 z"/>
<path transform="translate(0,0)" fill="rgb(27,86,53)" d="M 1018.73 539.316 C 1019.51 539.294 1020.3 539.28 1021.08 539.272 C 1036.03 539.131 1045.09 542.142 1055.43 552.217 C 1056.4 550.081 1055.98 543.678 1055.93 540.947 C 1067.71 541.042 1079.48 540.881 1091.25 540.465 C 1091.06 562.805 1091.03 585.146 1091.15 607.486 C 1091.2 629.031 1092.93 653.77 1088.18 674.488 C 1079.6 711.848 1029.72 716.919 1000.42 703.021 C 990.765 698.44 985.568 691.784 980.831 682.612 C 978.731 678.016 977.19 671.975 975.757 667.039 C 986.721 666.924 997.685 666.955 1008.65 667.132 C 1009.3 667.944 1009.95 668.75 1010.62 669.55 C 1040.21 705.174 1065.76 656.16 1054.52 643.441 C 1046.83 650.286 1042.23 653.872 1031.63 655.585 C 976.026 664.572 958.536 596.133 984.418 558.272 C 993.075 545.609 1004.59 541.775 1018.73 539.316 z M 1035.83 626.374 C 1065.86 616.329 1061.35 567.909 1029.53 569.253 C 998.381 575.162 999.161 625.933 1035.83 626.374 z"/>
<path transform="translate(0,0)" fill="rgb(49,63,75)" d="M 1331.79 509.781 C 1361.38 510.886 1401.99 504.06 1426.01 524.042 C 1459.47 551.884 1460.05 601.955 1433.97 634.63 C 1433.14 635.595 1432.3 636.544 1431.45 637.479 C 1410.26 660.461 1361.26 654.051 1331.83 655.239 C 1332.46 639.049 1331.98 619.925 1331.97 603.558 L 1331.79 509.781 z M 1351.33 639.876 C 1374.99 639.319 1397.35 642.571 1416.17 626.686 C 1436 605.812 1438.22 561.686 1417.19 540.548 C 1400.76 524.034 1373.03 526.755 1351.31 526.919 C 1351.97 548.237 1351.64 570.911 1351.68 592.323 C 1351.7 606.606 1352.25 625.965 1351.33 639.876 z"/>
<path transform="translate(0,0)" fill="rgb(27,86,53)" d="M 674.909 601.563 C 713.313 597.858 747.399 626.111 750.882 664.536 C 754.365 702.961 725.916 736.882 687.471 740.144 C 649.339 743.379 615.753 715.211 612.298 677.098 C 608.844 638.986 636.817 605.238 674.909 601.563 z M 685.545 708.672 C 699.17 707.327 711.014 698.746 716.538 686.218 C 722.061 673.69 720.406 659.158 712.209 648.192 C 704.011 637.226 690.541 631.526 676.962 633.278 C 656.397 635.932 641.771 654.601 644.116 675.203 C 646.461 695.805 664.91 710.709 685.545 708.672 z"/>
<path transform="translate(0,0)" fill="rgb(196,157,55)" d="M 677.604 651.919 C 684.483 650.379 691.658 652.669 696.373 657.91 C 701.087 663.151 702.608 670.528 700.351 677.206 C 698.095 683.885 692.411 688.826 685.484 690.133 C 675.021 692.107 664.907 685.328 662.757 674.9 C 660.606 664.472 667.213 654.245 677.604 651.919 z"/>
<path transform="translate(0,0)" fill="rgb(27,86,53)" d="M 871.723 508.976 C 884.428 508.535 898.877 508.859 911.722 508.903 C 913.626 514.233 915.611 519.625 917.693 524.89 C 934.709 567.915 948.562 611.826 965.136 655.019 C 952.614 655.295 940.088 655.344 927.565 655.167 C 924.282 647.646 922.048 636.563 917.662 629.777 C 917.281 629.188 915.267 629.264 914.25 629.18 C 897.592 629.29 880.934 629.253 864.277 629.071 C 862.129 638.392 858.897 646.493 855.033 655.184 C 842.817 655.093 830.601 655.102 818.385 655.211 C 831.143 625.198 839.135 592.537 851.524 562.114 C 858.631 544.662 864.511 526.503 871.723 508.976 z M 874.545 600.02 L 893.5 599.911 L 909.055 599.939 C 903.936 590.051 894.391 555.052 890.626 550.802 C 888.359 561.143 879.451 589.891 874.545 600.02 z"/>
<path transform="translate(0,0)" fill="rgb(27,86,53)" d="M 1248.08 538.636 C 1280.75 535.668 1309.69 559.638 1312.85 592.291 C 1316.02 624.943 1292.22 654.022 1259.59 657.379 C 1226.68 660.765 1197.3 636.722 1194.11 603.793 C 1190.92 570.865 1215.14 541.63 1248.08 538.636 z M 1257.01 626.728 C 1284.81 618.252 1282.89 566.283 1248.34 569.171 C 1218.12 581.031 1224.98 628.721 1257.01 626.728 z"/>
<path transform="translate(0,0)" fill="rgb(27,86,53)" d="M 485.114 632.696 C 529.92 621.258 553.34 606.26 584.362 571.816 C 591.222 564.199 605.003 550.072 612.847 544.289 L 614.564 546.875 C 614.926 557.171 614.232 591.137 615.499 598.791 C 617.806 600.091 619.465 599.517 622.173 599.158 C 623.532 597.971 624.262 597.504 624.103 595.154 C 623.263 582.762 625.15 559.427 623.342 548.055 C 627.265 548.425 631.315 548.753 635.219 549.184 L 635.44 601.882 C 612.46 618.941 600.597 643.846 599.614 672.148 C 564.89 670.425 517.268 671.925 481.548 671.943 C 485.614 657.744 485.917 647.212 485.114 632.696 z"/>
<path transform="translate(0,0)" fill="rgb(27,86,53)" d="M 364.698 543.332 C 403.002 540.209 440.454 557.693 458.747 592.219 C 446.064 596.185 431.614 597.034 415.971 602.124 C 408.717 596.354 403.253 592.011 394.461 588.382 C 380.396 582.542 364.554 582.711 350.617 588.851 C 334.041 596.005 325.181 606.433 318.707 622.745 C 314.742 635.779 315.178 642.649 317.048 655.55 C 305.513 667.476 297.333 676.202 286.544 689.044 C 266.835 650.961 270.746 611.458 297.543 577.49 C 315.721 554.448 336.441 546.862 364.698 543.332 z"/>
<path transform="translate(0,0)" fill="rgb(49,63,75)" d="M 1519.98 540.363 C 1521.18 540.324 1522.39 540.307 1523.59 540.313 C 1565.98 540.583 1578.55 568.331 1578.12 605.791 C 1569.03 604.663 1554.74 605.103 1545.32 605.127 C 1525.84 605.298 1506.36 605.293 1486.88 605.11 C 1494.58 643.708 1532.64 656.874 1554.67 621.448 C 1558.33 619.257 1571.8 619.446 1577.22 619.159 C 1568.36 641.34 1557.75 652.463 1533.13 656.217 C 1519.09 658.359 1499.85 654.869 1488.7 645.785 C 1464.03 625.7 1462.01 583 1481.18 558.544 C 1491.62 545.14 1504.47 542.275 1519.98 540.363 z M 1487.12 590.83 C 1502.17 590.627 1517.21 590.558 1532.25 590.626 C 1540.91 590.703 1550.01 590.636 1558.63 590.916 C 1553.23 567.251 1543.04 552.927 1516.36 556.282 C 1497.84 561.897 1490.96 572.119 1487.12 590.83 z"/>
<path transform="translate(0,0)" fill="rgb(27,86,53)" d="M 420.988 610.423 C 435.768 605.378 452.103 601.727 467.375 598.471 C 481.505 595.459 496.685 594.204 509.566 587.181 C 519.731 581.639 529.834 574.62 538.474 566.895 C 560.862 546.878 615.678 479.892 638.124 471.77 C 648.554 467.996 660.716 470.084 670.485 474.747 C 663.753 481.556 656.946 488.291 650.065 494.95 C 629.749 505.201 604.079 544.011 583.543 559.333 C 575.246 565.522 564.868 581.805 555.985 588.351 C 519.574 619.72 475.537 624.468 430.509 636.644 C 429.452 626.987 425.779 618.694 420.988 610.423 z"/>
<path transform="translate(0,0)" fill="rgb(27,86,53)" d="M 468.8 636.255 C 470.362 636.224 469.792 636.226 471.359 637.041 C 474.946 648.344 465.178 680.154 459.479 690.309 C 445.26 715.65 416.448 735.464 387.452 739.563 C 364.787 742.767 347.043 738.409 326.412 728.572 C 323.518 727.034 319.518 724.399 316.625 722.615 C 326.74 711.11 334.351 703.049 345.982 693.132 C 375.655 706.524 406.331 698.846 422.624 669.908 C 427.231 661.726 428.704 655.469 431.091 646.509 C 440.513 643.076 459.037 638.574 468.8 636.255 z"/>
<path transform="translate(0,0)" fill="rgb(49,63,75)" d="M 1704.89 501.835 C 1710.58 501.461 1719.22 501.662 1725.12 501.62 C 1723.69 528.341 1725.26 563.053 1724.67 590.738 C 1738.34 577.63 1756.46 551.537 1768.57 542.559 C 1776.72 541.962 1787.89 542.077 1796.28 541.911 C 1776.16 557.04 1761.1 581.008 1744.23 596.408 C 1754.43 609.391 1762.28 618.911 1773.34 630.91 C 1781.26 640.029 1787.79 647.386 1797.03 655.179 C 1788.17 655.152 1779.31 655.035 1770.45 654.83 C 1756.93 643.615 1739.28 619.117 1724.83 603.654 C 1725.35 620.168 1724.85 638.411 1725.11 655.19 C 1717.63 654.847 1712.29 654.995 1704.8 655.362 L 1704.89 501.835 z"/>
<path transform="translate(0,0)" fill="rgb(27,86,53)" d="M 1182.55 539.217 L 1184.03 539.311 C 1187.31 543.549 1186.08 569.418 1186.08 576.118 C 1145.79 574.781 1151.1 590.326 1150.23 625.173 C 1149.98 635.189 1150.34 645.505 1150.67 655.526 C 1139.02 654.703 1126.27 656.063 1114.75 654.963 C 1113.47 652.835 1113.81 649.888 1113.8 647.25 C 1113.29 612.126 1113.79 575.938 1113.91 540.783 L 1150.23 540.829 C 1150.13 547.5 1149.9 551.921 1149.17 558.56 C 1160.9 544.879 1164.71 542.335 1182.55 539.217 z"/>
<path transform="translate(0,0)" fill="rgb(49,63,75)" d="M 1637.93 540.359 C 1665.73 541.681 1675.79 549.483 1682.41 576.162 L 1661.98 576.073 C 1657.03 556.751 1635.98 546.837 1620.65 562.845 C 1618.39 565.206 1616.16 570.569 1617.04 573.758 C 1622.99 595.233 1659.9 589.297 1674.18 603.206 C 1682.6 610.379 1684.5 622.082 1681.89 632.74 C 1677.17 652.037 1655.57 656.017 1638.74 656.937 C 1611.75 654.267 1600.15 647.583 1592.61 621.651 C 1599.5 621.079 1606.57 621.197 1613.49 621.181 C 1615.69 626.124 1617.67 631.441 1621.9 635.009 C 1632.39 643.851 1650.28 644.714 1659.63 633.917 C 1662.11 631.078 1663.29 627.328 1662.87 623.581 C 1660.12 599.65 1597.79 608.529 1596.47 577.704 C 1595.27 549.599 1613.96 542.58 1637.93 540.359 z"/>
<path transform="translate(0,0)" fill="rgb(196,157,55)" d="M 338.534 648.276 C 342.467 611.778 366.22 592.978 398.277 617.866 C 405.48 614.62 413.327 612.309 420.988 610.423 C 425.779 618.694 429.452 626.987 430.509 636.644 C 422.109 638.414 415.435 640.315 407.186 642.759 C 403.014 671.855 379.895 682.377 353.835 670.398 C 349.615 676.346 343.516 682.368 338.393 687.741 C 329.728 680.112 326.322 675.163 319.948 665.72 C 326.48 659.113 331.434 654.211 338.534 648.276 z"/>
<path transform="translate(0,0)" fill="rgb(196,157,55)" d="M 783.891 440.805 C 791.188 445.726 797.193 452.191 803.305 458.532 C 787.754 474.804 773.595 490.732 757.123 506.652 C 734.316 528.696 715.381 554.673 682.8 524.428 C 674.071 515.81 662.308 498.416 650.065 494.95 C 656.946 488.291 663.753 481.556 670.485 474.747 C 681.736 484.481 697.926 502.534 709.528 509.485 C 712.513 509.556 715.111 508.317 717.363 506.316 C 740.494 485.765 760.334 460.927 783.891 440.805 z"/>
<path transform="translate(0,0)" fill="rgb(196,157,55)" d="M 631.497 523.625 C 646.273 525.558 662.333 527.751 676.197 533.451 C 681.341 535.566 691.557 543.308 696.196 544.345 C 714.227 548.374 717.622 544.824 726.604 563.479 C 714.641 563.631 701.951 564.012 690.056 563.515 L 690.192 574.98 C 701.964 574.979 715.04 574.729 726.718 575.04 C 726.298 583.316 725.992 591.597 725.799 599.881 C 706.687 591.925 688.019 586.819 667.257 590.535 C 667.277 578.917 667.037 566.181 667.443 554.652 C 664.12 553.99 660.418 553.338 657.152 552.579 L 645.73 550.941 L 635.219 549.184 C 631.315 548.753 627.265 548.425 623.342 548.055 L 614.564 546.875 L 612.847 544.289 C 620.022 537.741 622.332 531.76 631.497 523.625 z"/>
<path transform="translate(0,0)" fill="rgb(27,86,53)" d="M 841.187 401.193 C 838.005 417.058 835.379 433.04 832.644 448.992 C 830.834 459.555 827.853 471.123 826.291 481.514 C 818.559 473.923 810.897 466.262 803.305 458.532 C 797.193 452.191 791.188 445.726 783.891 440.805 C 776.881 431.973 769.493 426.08 763.384 418.629 C 781.801 414.596 825.809 406.352 841.187 401.193 z"/>
<path transform="translate(0,0)" fill="rgb(27,86,53)" d="M 319.948 665.72 C 326.322 675.163 329.728 680.112 338.393 687.741 C 326.377 697.817 313.391 711.62 303.273 723.351 C 298.31 729.105 295.048 734.134 289.631 739.947 C 279.897 741.282 263.46 740.624 253.495 740.175 C 258.869 729.463 309.507 676.552 319.948 665.72 z"/>
<path transform="translate(0,0)" fill="rgb(27,86,53)" d="M 645.73 550.941 L 657.152 552.579 C 657.893 564.054 657.464 581.477 657.529 593.4 C 653.788 594.263 649.592 595.71 645.888 596.889 C 646.468 583.634 646.195 564.295 645.73 550.941 z"/>
</svg>